<?xml version="1.0" standalone="no"?>
<!DOCTYPE svg PUBLIC "-//W3C//DTD SVG 20010904//EN"
 "http://www.w3.org/TR/2001/REC-SVG-20010904/DTD/svg10.dtd">
<svg version="1.0" xmlns="http://www.w3.org/2000/svg"
 width="413.000000pt" height="563.000000pt" viewBox="0 0 413.000000 563.000000"
 preserveAspectRatio="xMidYMid meet">

<g transform="translate(0.000000,563.000000) scale(0.100000,-0.100000)"
fill="#000000" stroke="none">
<path d="M3 3958 c3 -1513 5 -1684 20 -1791 86 -591 310 -1062 683 -1432 315
-313 751 -559 1250 -705 l110 -32 121 36 c500 149 924 390 1236 699 374 373
598 843 684 1434 15 107 17 278 20 1791 l4 1672 -2066 0 -2066 0 4 -1672z
m3967 -25 c0 -1616 -1 -1661 -45 -1893 -122 -644 -447 -1139 -977 -1487 -107
-71 -317 -182 -448 -238 -125 -54 -400 -146 -435 -146 -35 0 -310 92 -435 146
-761 326 -1241 882 -1404 1625 -64 294 -60 168 -63 1928 l-4 1602 1906 0 1905
0 0 -1537z"/>
<path d="M3181 5264 c-81 -17 -191 -69 -257 -121 -67 -53 -137 -159 -171 -258
-24 -71 -27 -94 -27 -210 1 -113 4 -140 27 -211 61 -185 200 -314 393 -365
110 -29 288 -29 397 0 90 24 197 69 197 83 0 13 -31 189 -36 206 -2 9 -19 4
-56 -17 -95 -53 -173 -74 -278 -74 -119 0 -188 24 -255 89 -151 146 -147 466
7 599 121 103 344 105 502 5 26 -17 51 -29 54 -26 4 5 42 206 42 227 0 13
-119 59 -189 74 -89 19 -263 18 -350 -1z"/>
<path d="M390 4870 c0 -248 4 -408 11 -442 36 -168 156 -287 341 -334 84 -22
261 -22 352 0 194 46 327 183 356 366 5 36 10 230 10 433 l0 367 -140 0 -140
0 0 -378 c0 -298 -3 -389 -14 -426 -32 -107 -108 -159 -235 -160 -97 -1 -159
22 -204 75 -59 69 -60 77 -64 502 l-4 387 -135 0 -134 0 0 -390z"/>
<path d="M1690 4675 l0 -585 203 0 c321 0 450 23 557 98 80 55 120 136 120
239 0 42 -5 93 -12 115 -16 53 -78 121 -137 151 l-49 24 43 31 c69 48 99 102
103 184 3 38 -1 89 -8 114 -16 57 -79 128 -141 160 -91 46 -154 54 -426 54
l-253 0 0 -585z m460 384 c71 -15 110 -56 110 -115 0 -100 -57 -141 -210 -151
l-90 -6 0 142 0 141 70 0 c38 0 92 -5 120 -11z m20 -460 c94 -20 152 -98 136
-185 -16 -81 -104 -124 -258 -124 l-88 0 0 160 0 160 80 0 c43 0 102 -5 130
-11z"/>
<path d="M831 3940 c-36 -5 -123 -29 -195 -54 -72 -24 -157 -48 -188 -51 l-58
-7 0 -133 0 -134 58 6 c31 3 95 19 142 35 201 71 206 71 360 72 l145 0 155
-53 c141 -49 163 -54 245 -54 100 -1 160 11 273 55 198 77 396 77 594 0 113
-44 173 -56 273 -55 82 0 104 5 245 54 l155 53 145 0 c154 -1 159 -1 360 -72
47 -16 111 -32 143 -35 l57 -6 0 134 0 133 -57 7 c-32 3 -116 26 -188 51 -161
55 -273 71 -402 55 -94 -12 -121 -19 -268 -72 -80 -29 -102 -32 -200 -32 -106
-1 -115 1 -245 46 -243 85 -387 85 -631 0 -129 -45 -138 -47 -244 -46 -99 0
-119 3 -200 33 -189 68 -332 89 -474 70z"/>
<path d="M2061 3520 c-1 -15 -209 -1530 -214 -1560 -1 -8 -163 254 -360 583
-197 328 -359 597 -361 597 -1 0 64 -289 146 -642 81 -354 147 -647 145 -652
-2 -5 -167 148 -368 340 -200 192 -372 355 -382 363 -22 17 -44 75 183 -474
100 -242 186 -450 191 -463 l9 -23 -27 19 c-16 11 -158 117 -317 236 -160 118
-292 214 -294 211 -8 -8 153 -395 219 -525 261 -516 604 -804 1254 -1055 83
-32 164 -58 180 -58 17 0 98 26 180 58 377 145 646 304 861 507 216 205 373
460 539 876 42 106 75 195 73 197 -2 3 -134 -93 -294 -211 -159 -119 -301
-225 -317 -236 l-27 -19 9 23 c5 13 91 221 191 463 227 549 205 491 183 474
-10 -8 -182 -171 -382 -363 -201 -192 -366 -345 -368 -340 -2 5 64 298 145
652 82 353 147 642 146 642 -2 0 -164 -269 -361 -597 -197 -329 -359 -591
-360 -583 -1 8 -50 362 -108 785 -100 727 -112 812 -114 775z"/>
<path d="M775 3465 c-33 -7 -105 -30 -159 -50 -55 -20 -128 -39 -163 -42 l-63
-6 0 -135 0 -135 63 7 c34 3 122 27 195 52 212 73 383 77 560 13 165 -60 219
-71 322 -66 79 3 116 11 220 47 69 24 127 45 129 47 8 6 41 266 36 272 -3 3
-70 -17 -148 -44 -140 -49 -144 -50 -262 -50 -118 0 -122 1 -260 49 -137 49
-142 49 -275 53 -92 2 -154 -2 -195 -12z"/>
<path d="M3015 3466 c-33 -8 -105 -31 -160 -52 -96 -36 -105 -38 -225 -38
-125 -1 -125 -1 -267 49 -78 27 -145 47 -148 44 -5 -6 28 -266 36 -272 2 -2
60 -23 129 -47 104 -36 141 -44 220 -47 103 -5 157 6 322 66 177 64 348 60
560 -13 73 -25 161 -49 196 -52 l62 -7 0 135 0 135 -62 6 c-35 3 -124 27 -198
53 -131 46 -139 47 -270 50 -91 3 -155 -1 -195 -10z"/>
<path d="M825 3009 c-33 -5 -118 -29 -190 -53 -71 -24 -156 -47 -187 -51 l-58
-6 0 -130 0 -129 48 0 c54 0 114 15 227 58 105 39 212 56 324 50 79 -4 91 -2
87 11 -3 9 -17 68 -31 130 -15 63 -28 119 -31 123 -6 10 -110 8 -189 -3z"/>
<path d="M3116 3012 c-3 -4 -16 -60 -31 -123 -14 -62 -28 -121 -31 -130 -4
-13 8 -15 87 -11 112 6 219 -11 324 -50 113 -43 173 -58 228 -58 l47 0 0 129
0 129 -72 10 c-40 6 -123 29 -184 51 -110 39 -222 61 -314 61 -27 0 -51 -4
-54 -8z"/>
<path d="M1746 2954 c-102 -40 -209 -59 -278 -50 l-47 7 81 -136 82 -137 34 7
c19 4 72 20 117 36 l81 30 17 127 c20 142 20 152 10 151 -5 0 -48 -16 -97 -35z"/>
<path d="M2280 2978 c0 -7 7 -70 17 -140 l17 -127 81 -30 c45 -16 98 -32 117
-36 l34 -7 80 134 80 133 -90 1 c-92 1 -133 10 -260 58 -80 30 -76 30 -76 14z"/>
</g>
</svg>
